<?xml version="1.0" encoding="UTF-8" standalone="no"?>
<!-- Created with Inkscape (http://www.inkscape.org/) -->
<svg
   xmlns:svg="http://www.w3.org/2000/svg"
   xmlns="http://www.w3.org/2000/svg"
   xmlns:xlink="http://www.w3.org/1999/xlink"
   xmlns:inkscape="http://www.inkscape.org/namespaces/inkscape"
   version="1.0"
   width="128"
   height="128"
   id="svg2">
  <defs
     id="defs4">
    <linearGradient
       id="linearGradient3325">
      <stop
         id="stop3327"
         style="stop-color:#d61313;stop-opacity:1"
         offset="0" />
      <stop
         id="stop3329"
         style="stop-color:#ffffff;stop-opacity:1"
         offset="1" />
    </linearGradient>
    <linearGradient
       id="linearGradient3311">
      <stop
         id="stop3313"
         style="stop-color:#fe0000;stop-opacity:1"
         offset="0" />
      <stop
         id="stop3333"
         style="stop-color:#d20000;stop-opacity:1"
         offset="0.25" />
      <stop
         id="stop3319"
         style="stop-color:#990000;stop-opacity:1"
         offset="0.5" />
      <stop
         id="stop3335"
         style="stop-color:#c82f2f;stop-opacity:1"
         offset="0.75" />
      <stop
         id="stop3315"
         style="stop-color:#fc6363;stop-opacity:1"
         offset="1" />
    </linearGradient>
    <linearGradient
       id="linearGradient3303">
      <stop
         id="stop3305"
         style="stop-color:#d30000;stop-opacity:1"
         offset="0" />
      <stop
         id="stop3307"
         style="stop-color:#fd6767;stop-opacity:1"
         offset="1" />
    </linearGradient>
    <linearGradient
       id="linearGradient2485">
      <stop
         id="stop2487"
         style="stop-color:#663232;stop-opacity:1"
         offset="0" />
      <stop
         id="stop2489"
         style="stop-color:#a70202;stop-opacity:1"
         offset="1" />
    </linearGradient>
    <linearGradient
       x1="10.754942"
       y1="98.848442"
       x2="117.45568"
       y2="98.848442"
       id="linearGradient2521"
       xlink:href="#linearGradient2485"
       gradientUnits="userSpaceOnUse"
       gradientTransform="translate(81.714286,353.84866)" />
    <linearGradient
       x1="94.450401"
       y1="452.07587"
       x2="195.77328"
       y2="452.07587"
       id="linearGradient3309"
       xlink:href="#linearGradient3303"
       gradientUnits="userSpaceOnUse" />
    <linearGradient
       x1="97.563675"
       y1="451.79282"
       x2="193.68799"
       y2="451.79282"
       id="linearGradient3317"
       xlink:href="#linearGradient3311"
       gradientUnits="userSpaceOnUse" />
    <linearGradient
       x1="63.963604"
       y1="66.583618"
       x2="63.963604"
       y2="17.370178"
       id="linearGradient3331"
       xlink:href="#linearGradient3325"
       gradientUnits="userSpaceOnUse" />
    <filter
       id="filter3341">
      <feGaussianBlur
         id="feGaussianBlur3343"
         stdDeviation="1.1015221"
         inkscape:collect="always" />
    </filter>
  </defs>
  <g
     transform="translate(-81.714287,-354.07648)"
     id="layer1">
    <path
       d="M 113.50441,364.70306 C 111.36791,364.70306 109.23525,365.53472 107.59816,367.17181 L 94.50441,380.23431 C 91.23022,383.5085 91.23022,388.77263 94.50441,392.04681 L 122.25441,419.79681 L 94.50441,447.51556 C 91.23022,450.78975 91.23022,456.05387 94.50441,459.32806 L 107.59816,472.39056 C 110.87235,475.66475 116.13647,475.66475 119.41066,472.39056 L 147.12941,444.67181 L 174.84816,472.39056 C 178.12234,475.66475 183.38647,475.66475 186.66066,472.39056 L 199.75441,459.32806 C 203.02859,456.05387 203.02859,450.78975 199.75441,447.51556 L 172.00441,419.79681 L 199.75441,392.04681 C 203.02859,388.77263 203.02859,383.5085 199.75441,380.23431 L 186.66066,367.17181 C 183.38647,363.89763 178.12234,363.89763 174.84816,367.17181 L 147.12941,394.89056 L 119.41066,367.17181 C 117.77357,365.53472 115.64091,364.70306 113.50441,364.70306 z"
       id="path3337"
       style="opacity:0.5;fill:#000000;fill-opacity:1;fill-rule:evenodd;stroke:none;stroke-width:2;stroke-linecap:butt;stroke-linejoin:round;stroke-miterlimit:4;stroke-dasharray:none;stroke-dashoffset:7.2;stroke-opacity:1;filter:url(#filter3341)" />
    <path
       d="M 112.08929,363.00491 C 109.95279,363.00491 107.82013,363.83657 106.18304,365.47366 L 93.089286,378.53616 C 89.815096,381.81035 89.815096,387.07448 93.089286,390.34866 L 120.83929,418.09866 L 93.089286,445.81741 C 89.815096,449.0916 89.815096,454.35572 93.089286,457.62991 L 106.18304,470.69241 C 109.45723,473.9666 114.72135,473.9666 117.99554,470.69241 L 145.71429,442.97366 L 173.43304,470.69241 C 176.70722,473.9666 181.97135,473.9666 185.24554,470.69241 L 198.33929,457.62991 C 201.61347,454.35572 201.61347,449.0916 198.33929,445.81741 L 170.58929,418.09866 L 198.33929,390.34866 C 201.61347,387.07448 201.61347,381.81035 198.33929,378.53616 L 185.24554,365.47366 C 181.97135,362.19948 176.70722,362.19948 173.43304,365.47366 L 145.71429,393.19241 L 117.99554,365.47366 C 116.35845,363.83657 114.22579,363.00491 112.08929,363.00491 z"
       id="path2497"
       style="fill:url(#linearGradient2521);fill-opacity:1;fill-rule:evenodd;stroke:none;stroke-width:2;stroke-linecap:butt;stroke-linejoin:round;stroke-miterlimit:4;stroke-dasharray:none;stroke-dashoffset:7.2;stroke-opacity:1" />
    <path
       d="M 112.15179,366.12991 C 110.88293,366.12991 109.62406,366.6264 108.65179,367.59866 L 95.245536,381.00491 C 93.301006,382.94944 93.301006,386.09163 95.245536,388.03616 L 125.27679,418.09866 L 95.245536,448.12991 C 93.301006,450.07444 93.301006,453.21663 95.245536,455.16116 L 108.65179,468.56741 C 110.59632,470.51194 113.70726,470.51195 115.65179,468.56741 L 145.71429,438.50491 L 175.77679,468.56741 C 177.72132,470.51194 180.83226,470.51195 182.77679,468.56741 L 196.18304,455.16116 C 198.12757,453.21663 198.12757,450.07445 196.18304,448.12991 L 166.15179,418.09866 L 196.18304,388.03616 C 198.12757,386.09163 198.12757,382.94944 196.18304,381.00491 L 182.77679,367.59866 C 180.83226,365.65413 177.72132,365.65413 175.77679,367.59866 L 145.71429,397.66116 L 115.65179,367.59866 C 114.67952,366.6264 113.42065,366.12991 112.15179,366.12991 z"
       id="path2499"
       style="opacity:1;fill:url(#linearGradient3309);fill-opacity:1;fill-rule:evenodd;stroke:none;stroke-width:2;stroke-linecap:butt;stroke-linejoin:round;stroke-miterlimit:4;stroke-dasharray:none;stroke-dashoffset:7.2;stroke-opacity:1" />
    <path
       d="M 112.15625,368.125 C 112.90339,368.125 113.64737,368.39738 114.25,369 L 144.3125,399.0625 L 145.71875,400.5 L 147.125,399.0625 L 177.1875,369 C 178.37786,367.80964 180.18464,367.80964 181.375,369 L 194.78125,382.40625 C 195.96403,383.58903 195.96403,385.44222 194.78125,386.625 L 164.75,416.6875 L 163.3125,418.09375 L 164.75,419.5 L 194.78125,449.53125 C 195.96404,450.71405 195.96403,452.56721 194.78125,453.75 L 181.375,467.15625 C 180.18464,468.34661 178.37785,468.3466 177.1875,467.15625 L 147.125,437.09375 L 145.71875,435.6875 L 144.3125,437.09375 L 114.25,467.15625 C 113.05964,468.34661 111.25286,468.34661 110.0625,467.15625 L 96.65625,453.75 C 95.473468,452.56722 95.47347,450.71403 96.65625,449.53125 L 126.6875,419.5 L 128.09375,418.09375 L 126.6875,416.6875 L 96.65625,386.625 C 95.473468,385.44222 95.47347,383.58903 96.65625,382.40625 L 110.0625,369 C 110.66513,368.39738 111.40912,368.125 112.15625,368.125 z"
       id="path2523"
       style="opacity:1;fill:url(#linearGradient3317);fill-opacity:1;fill-rule:evenodd;stroke:none;stroke-width:4;stroke-linecap:butt;stroke-linejoin:miter;stroke-miterlimit:4;stroke-dasharray:none;stroke-dashoffset:7.2;stroke-opacity:1" />
    <path
       d="M 30.59375,17.46875 L 17.46875,30.59375 L 50.875,64 L 49.5,65.375 C 54.188747,66.301993 59.040533,66.78125 64,66.78125 C 68.959467,66.78125 73.811253,66.301993 78.5,65.375 L 77.125,64 L 110.53125,30.59375 L 97.40625,17.46875 L 64,50.875 L 30.59375,17.46875 z"
       transform="translate(81.714287,354.07648)"
       id="rect2468"
       style="opacity:1;fill:url(#linearGradient3331);fill-opacity:1;fill-rule:evenodd;stroke:none;stroke-width:2;stroke-linecap:butt;stroke-linejoin:round;stroke-miterlimit:4;stroke-dasharray:none;stroke-dashoffset:7.2;stroke-opacity:1" />
  </g>
</svg>
